<svg xmlns="http://www.w3.org/2000/svg" viewBox="0 0 64 64">
  <rect width="64" height="64" rx="8" fill="#FF4F00"/>
  <path fill="#FAF9F5" d="M14 15h4l15 16V18h5v8h6c7 0 11 4 11 10.5S51 47 44 47h-6v6h-5V39L19 24v17h-5V15Zm24 16v11h6c4 0 6-2 6-5.5S48 31 44 31h-6Z"/>
  <g fill="none" stroke="#171716" stroke-width="1.3" stroke-linecap="square">
    <path d="M31 19c0-7 6-12 13-12 9 0 15 7 15 15 0 3-.8 5.5-2.2 7.6"/>
    <path d="M39 49c3 6 10 8 15 5.5 2.3-1 4-2.8 5-5"/>
    <path d="M14 43h11"/>
    <path d="m24 49 7-7m-5 10 7-7m-4 10 6-6"/>
  </g>
  <circle cx="44" cy="36.5" r="1.7" fill="#171716"/>
</svg>
