<?xml version="1.0" standalone="no"?>
<!DOCTYPE svg PUBLIC "-//W3C//DTD SVG 20010904//EN"
 "http://www.w3.org/TR/2001/REC-SVG-20010904/DTD/svg10.dtd">
<svg version="1.0" xmlns="http://www.w3.org/2000/svg"
 width="421.000000pt" height="421.000000pt" viewBox="0 0 421.000000 421.000000"
 preserveAspectRatio="xMidYMid meet">
<metadata>
Created by potrace 1.14, written by Peter Selinger 2001-2017
</metadata>
<g transform="translate(0.000000,421.000000) scale(0.100000,-0.100000)"
fill="#000000" stroke="none">
<path d="M2727 3603 c-4 -3 -7 -11 -7 -17 0 -6 5 -5 12 2 6 6 9 14 7 17 -3 3
-9 2 -12 -2z"/>
<path d="M3297 3586 c-4 -10 -5 -21 -2 -24 9 -9 17 6 13 25 -3 17 -4 17 -11
-1z"/>
<path d="M2725 3524 c2 -11 4 -26 5 -34 1 -10 3 -11 7 -2 2 6 16 12 29 12 13
0 24 5 24 10 0 6 -10 10 -23 10 -13 0 -28 5 -34 11 -9 9 -11 7 -8 -7z"/>
<path d="M2645 3510 c-4 -6 7 -10 25 -10 18 0 29 4 25 10 -3 6 -15 10 -25 10
-10 0 -22 -4 -25 -10z"/>
<path d="M2830 3510 c0 -5 11 -10 25 -10 14 0 25 5 25 10 0 6 -11 10 -25 10
-14 0 -25 -4 -25 -10z"/>
<path d="M2921 3503 c-5 -10 -12 -17 -15 -15 -14 6 -93 -37 -123 -66 -35 -36
-43 -39 -43 -17 0 8 -5 15 -11 15 -5 0 -7 -4 -4 -10 9 -14 5 -13 -77 14 -40
14 -87 27 -103 30 -17 3 -41 8 -55 11 -122 25 -434 25 -549 -1 -93 -21 -275
-81 -324 -106 -95 -51 -174 -144 -185 -218 -5 -39 -22 -50 -62 -40 -19 4 -29
8 -21 9 7 1 11 7 8 15 -3 8 -1 16 6 19 8 2 8 5 -1 11 -7 4 -12 2 -12 -3 0 -21
-15 -10 -29 20 -7 17 -32 44 -55 61 -22 16 -40 35 -38 42 2 13 -32 15 -44 4
-3 -3 -19 -2 -35 2 -19 6 -39 5 -53 -2 -16 -7 -30 -7 -42 0 -11 5 -28 6 -39 1
-16 -6 -13 -8 14 -8 l34 -1 -37 -25 c-41 -28 -47 -30 -44 -14 2 6 -3 14 -10
16 -8 3 -10 -1 -6 -14 4 -10 -8 -3 -28 18 -33 35 -89 69 -114 69 -7 0 -14 6
-17 13 -3 9 -11 9 -38 0 -22 -9 -37 -9 -43 -3 -13 13 -46 13 -46 0 0 -5 8 -10
18 -11 10 0 4 -5 -13 -11 -16 -6 -34 -17 -38 -24 -4 -8 -13 -14 -20 -14 -13 0
-26 -18 -63 -87 -21 -40 -24 -79 -8 -105 3 -4 0 -8 -5 -8 -6 0 -11 -12 -11
-26 0 -24 -3 -25 -42 -23 -29 2 -42 -1 -40 -9 1 -7 -3 -12 -8 -12 -16 0 -71
-57 -75 -77 -2 -10 -4 -20 -5 -23 0 -3 -7 6 -16 20 l-15 25 7 -25 c9 -29 9
-45 1 -82 -3 -17 0 -31 9 -39 7 -6 12 -15 9 -19 -3 -4 2 -13 10 -20 8 -7 15
-18 15 -25 0 -7 19 -25 42 -41 30 -21 37 -30 25 -32 -10 -2 -15 -7 -12 -12 3
-5 19 -4 35 1 19 7 35 7 46 1 11 -6 27 -7 42 -1 13 5 41 6 63 3 26 -4 39 -3
39 5 0 15 15 14 32 -1 15 -15 40 -17 50 -3 10 14 57 14 51 -1 -5 -14 28 -14
39 0 10 15 48 14 48 -1 0 -11 7 -10 37 2 31 13 40 13 48 3 12 -16 38 -17 47
-1 8 12 48 6 48 -7 0 -5 9 -6 20 -3 11 3 20 9 20 14 0 5 6 6 13 3 8 -3 14 -23
15 -49 1 -24 13 -86 27 -139 29 -110 33 -136 41 -269 3 -54 14 -128 25 -165
11 -40 13 -61 6 -51 -7 8 -20 18 -30 22 -23 9 -87 -20 -87 -38 0 -7 -4 -15 -9
-17 -10 -3 -22 -53 -23 -100 -1 -16 -2 -28 -2 -28 -1 0 -19 9 -41 20 -22 11
-45 20 -52 20 -7 0 -13 6 -13 13 0 14 -23 15 -53 2 -10 -4 -29 -3 -43 4 -20 9
-28 8 -40 -4 -8 -8 -34 -23 -57 -33 -45 -21 -127 -92 -127 -110 0 -6 -15 -25
-33 -41 -17 -17 -27 -31 -22 -31 17 0 9 -212 -8 -225 -8 -6 -25 -26 -38 -45
-13 -20 -28 -36 -34 -38 -12 -3 -13 -33 -2 -49 5 -6 4 -28 -2 -47 -7 -28 -7
-36 4 -36 8 0 17 -9 20 -20 3 -11 11 -20 16 -20 5 0 9 -6 9 -14 0 -8 9 -18 20
-21 11 -3 20 -10 20 -14 0 -9 102 -47 115 -42 9 3 125 3 165 0 8 -1 27 1 41 4
14 3 32 2 39 -3 7 -4 26 -4 43 1 17 5 35 5 41 0 6 -5 20 -6 31 -4 22 5 37 6
75 4 14 -1 40 -1 58 -1 17 0 38 0 45 -1 6 -1 24 1 39 4 15 3 30 1 34 -4 3 -5
10 -6 16 -2 7 3 47 5 91 4 l79 -2 87 -87 c47 -48 104 -101 126 -117 22 -17 42
-33 45 -36 3 -3 26 -18 51 -32 163 -95 417 -118 624 -56 66 19 163 67 191 93
6 6 25 20 40 31 37 26 204 191 204 202 0 4 12 16 26 26 19 14 28 16 39 7 10
-8 19 -8 34 0 15 7 27 8 41 0 14 -8 25 -7 39 2 15 9 23 9 34 0 11 -9 22 -10
42 -2 19 7 31 7 40 0 9 -7 21 -7 40 2 17 7 29 8 33 2 8 -11 30 -11 55 0 10 5
23 4 31 -3 10 -8 21 -8 41 -1 19 7 31 7 40 0 9 -7 21 -7 40 2 21 9 28 9 34 -1
11 -16 12 -17 38 -2 17 9 27 9 41 0 15 -9 29 -6 75 16 31 16 57 31 57 35 0 3
9 16 20 28 12 12 17 22 13 22 -4 0 -2 4 6 9 17 11 23 38 11 46 -4 3 -4 20 0
40 5 21 4 33 -2 32 -5 -1 -15 7 -21 18 -24 41 -97 92 -111 77 -4 -3 -4 2 0 12
5 13 4 17 -3 13 -6 -4 -19 0 -28 9 -12 12 -13 19 -4 30 6 7 8 17 5 23 -3 5 0
12 6 14 8 4 7 6 -4 6 -9 1 -19 -5 -21 -11 -3 -7 -6 -3 -6 10 -1 12 -5 22 -11
22 -5 0 -10 6 -10 13 0 7 -20 26 -45 41 -46 30 -57 40 -30 30 8 -4 15 -1 15 5
0 15 -37 14 -43 -1 -3 -10 -9 -10 -26 0 -24 14 -51 16 -51 3 0 -5 -14 -14 -32
-20 -31 -11 -31 -11 -13 9 16 17 16 20 2 20 -16 0 -16 2 0 70 12 52 6 146 -12
184 -20 41 -72 81 -89 67 -6 -5 -21 -12 -34 -16 -23 -7 -23 -6 -9 22 20 39 36
122 42 228 5 81 10 126 15 133 2 1 3 5 4 10 1 4 7 23 14 43 7 20 15 47 18 60
3 13 8 35 12 49 3 14 5 70 5 126 -1 93 0 100 18 99 10 -1 22 -4 25 -8 11 -11
44 -8 44 3 0 6 -8 10 -17 10 -12 1 -8 6 12 17 47 24 85 64 102 106 8 20 19 37
23 37 4 0 10 9 13 20 3 11 1 20 -5 20 -5 0 -6 5 -3 10 4 6 1 17 -5 25 -9 11
-9 15 -1 15 6 0 11 13 11 30 0 21 -4 28 -14 24 -9 -3 -17 3 -21 16 -9 27 -62
82 -95 97 -19 9 -21 12 -7 12 11 1 15 6 11 12 -4 6 -20 8 -40 4 -29 -5 -34 -3
-34 14 0 11 -6 21 -12 24 -10 3 -10 9 0 26 15 25 16 65 2 56 -6 -4 -8 -16 -5
-28 4 -12 -10 6 -30 41 -20 34 -41 62 -47 62 -6 0 -8 3 -5 7 9 8 -83 70 -117
79 -14 3 -26 12 -26 20 0 8 -10 14 -25 14 -14 0 -25 -4 -25 -10 0 -11 -35 -8
-46 3 -13 13 -43 7 -53 -10z"/>
<path d="M3115 3510 c-4 -6 7 -10 25 -10 18 0 29 4 25 10 -3 6 -15 10 -25 10
-10 0 -22 -4 -25 -10z"/>
<path d="M3210 3510 c0 -5 12 -10 26 -10 14 0 23 4 19 10 -3 6 -15 10 -26 10
-10 0 -19 -4 -19 -10z"/>
<path d="M3299 3513 c0 -5 -2 -16 -4 -25 -2 -10 1 -20 6 -24 5 -3 9 4 9 15 0
14 6 21 20 21 11 0 20 5 20 10 0 11 -50 14 -51 3z"/>
<path d="M969 3428 c-6 -12 -4 -48 2 -48 5 0 9 11 9 25 0 21 -6 33 -11 23z"/>
<path d="M545 3400 c-4 -12 -5 -24 -2 -27 3 -2 8 5 12 17 4 12 5 24 2 27 -3 2
-8 -5 -12 -17z"/>
<path d="M3294 3395 c0 -14 4 -25 8 -25 9 0 16 23 10 38 -8 21 -20 13 -18 -13z"/>
<path d="M1343 3395 c0 -8 6 -15 13 -15 8 0 11 6 8 15 -4 8 -9 15 -13 15 -4 0
-8 -7 -8 -15z"/>
<path d="M500 3331 c0 -5 10 -11 23 -13 14 -2 21 -9 21 -20 -1 -10 2 -16 6
-13 4 3 8 16 8 30 0 21 -5 25 -29 25 -16 0 -29 -4 -29 -9z"/>
<path d="M585 3330 c-4 -6 7 -10 25 -10 18 0 29 4 25 10 -3 6 -15 10 -25 10
-10 0 -22 -4 -25 -10z"/>
<path d="M855 3330 c3 -5 15 -10 26 -10 10 0 19 5 19 10 0 6 -12 10 -26 10
-14 0 -23 -4 -19 -10z"/>
<path d="M940 3330 c0 -5 7 -10 15 -10 8 0 14 -3 13 -7 -2 -5 1 -8 7 -8 5 0
11 8 12 18 2 12 -4 17 -22 17 -14 0 -25 -4 -25 -10z"/>
<path d="M1345 3320 c2 -26 11 -34 18 -16 3 8 0 19 -7 25 -10 8 -12 6 -11 -9z"/>
<path d="M945 3280 c-3 -5 1 -10 10 -10 9 0 13 5 10 10 -3 6 -8 10 -10 10 -2
0 -7 -4 -10 -10z"/>
<path d="M1269 3279 c-10 -6 -3 -9 20 -9 19 0 31 3 27 7 -10 11 -32 12 -47 2z"/>
<path d="M1359 3279 c-10 -6 -7 -9 14 -9 29 0 35 5 14 13 -8 3 -20 1 -28 -4z"/>
<path d="M542 3224 c-1 -13 2 -24 6 -24 10 0 13 38 3 44 -3 3 -8 -6 -9 -20z"/>
<path d="M1346 3228 c4 -34 4 -34 13 -19 10 15 4 41 -8 41 -4 0 -7 -10 -5 -22z"/>
<path d="M3495 3226 c0 -13 2 -24 5 -24 3 1 13 -2 23 -7 11 -4 22 -3 28 4 5 6
6 9 3 6 -11 -8 -44 15 -44 30 0 8 -3 15 -7 15 -5 0 -8 -11 -8 -24z"/>
<path d="M3425 3200 c3 -5 17 -10 31 -10 14 0 22 4 19 10 -3 6 -17 10 -31 10
-14 0 -22 -4 -19 -10z"/>
<path d="M3496 3143 c-4 -9 -3 -20 2 -25 6 -6 11 1 14 16 6 29 -6 35 -16 9z"/>
<path d="M349 3020 c0 -3 -2 -13 -4 -22 -2 -10 1 -18 7 -18 6 0 7 7 4 16 -4
10 0 15 12 13 29 -3 42 1 42 11 0 9 -59 10 -61 0z"/>
<path d="M3496 2858 c4 -34 4 -34 13 -19 10 15 4 41 -8 41 -4 0 -7 -10 -5 -22z"/>
<path d="M3500 2790 c-1 -3 -4 -15 -5 -26 -2 -17 3 -21 21 -21 13 0 24 3 24 8
0 5 -6 9 -14 9 -8 0 -17 8 -19 18 -3 9 -6 15 -7 12z"/>
<path d="M344 2740 c0 -11 4 -20 8 -20 4 0 8 9 8 20 0 11 -4 20 -8 20 -4 0 -8
-9 -8 -20z"/>
<path d="M3425 2750 c3 -5 15 -10 25 -10 10 0 22 5 25 10 4 6 -7 10 -25 10
-18 0 -29 -4 -25 -10z"/>
<path d="M349 2678 c-6 -23 -7 -48 -1 -48 4 0 8 11 8 25 0 21 -4 33 -7 23z"/>
<path d="M374 2659 c-9 -15 -2 -18 20 -9 17 6 18 7 3 13 -9 3 -19 2 -23 -4z"/>
<path d="M610 1946 c0 -15 4 -25 9 -22 10 7 9 31 -2 42 -4 4 -7 -5 -7 -20z"/>
<path d="M583 1886 c2 -6 14 -13 26 -14 20 -3 21 -2 10 10 -15 17 -41 20 -36
4z"/>
<path d="M661 1890 c-20 -12 17 -22 37 -10 10 5 15 10 12 10 -30 7 -39 7 -49
0z"/>
<path d="M745 1890 c-6 -9 25 -18 43 -13 6 3 12 8 12 11 0 10 -49 11 -55 2z"/>
<path d="M1030 1890 c-8 -5 -6 -9 8 -12 11 -3 26 -2 33 3 8 5 12 9 9 10 -3 0
-12 2 -21 4 -9 1 -22 -1 -29 -5z"/>
<path d="M607 1854 c-8 -8 1 -24 12 -24 4 0 8 7 8 15 0 16 -9 20 -20 9z"/>
<path d="M3587 1785 c-4 -8 -2 -17 2 -20 5 -2 11 4 14 15 6 23 -8 27 -16 5z"/>
<path d="M610 1766 c0 -14 4 -26 8 -26 11 0 12 39 1 45 -5 4 -9 -5 -9 -19z"/>
<path d="M3588 1712 c-4 -12 -2 -24 2 -27 13 -8 18 8 10 29 -6 19 -7 19 -12
-2z"/>
<path d="M3530 1670 c0 -5 9 -10 20 -10 11 0 20 5 20 10 0 6 -9 10 -20 10 -11
0 -20 -4 -20 -10z"/>
<path d="M3610 1670 c0 -5 6 -10 14 -10 8 0 18 5 21 10 3 6 -3 10 -14 10 -12
0 -21 -4 -21 -10z"/>
<path d="M3581 1645 c1 -22 16 -48 22 -38 3 5 0 19 -8 29 -8 10 -14 15 -14 9z"/>
<path d="M519 1558 c-7 -25 -7 -48 1 -53 6 -4 10 7 10 24 0 17 -2 31 -5 31 -3
0 -5 -1 -6 -2z"/>
<path d="M3748 1490 c-3 -18 0 -29 5 -27 12 4 17 46 6 52 -4 3 -9 -9 -11 -25z"/>
<path d="M525 1489 c-11 -4 -15 -8 -10 -9 6 -1 18 -3 27 -5 10 -2 20 0 23 5 8
12 -18 18 -40 9z"/>
<path d="M3670 1469 c0 -5 9 -9 20 -9 11 0 20 4 20 8 0 4 -9 8 -20 9 -11 1
-20 -2 -20 -8z"/>
<path d="M517 1453 c-6 -14 -2 -36 8 -40 6 -1 10 8 10 22 0 24 -10 33 -18 18z"/>
<path d="M3750 1415 c0 -8 4 -15 8 -15 5 0 9 7 9 15 0 8 -4 15 -9 15 -4 0 -8
-7 -8 -15z"/>
<path d="M3753 1180 c1 -11 5 -20 9 -20 3 0 6 9 5 20 -1 11 -5 20 -9 20 -3 0
-6 -9 -5 -20z"/>
<path d="M514 1158 c3 -26 19 -22 21 5 1 9 -4 17 -12 17 -8 0 -12 -9 -9 -22z"/>
<path d="M3660 1130 c0 -5 6 -10 14 -10 8 0 18 5 21 10 3 6 -3 10 -14 10 -12
0 -21 -4 -21 -10z"/>
<path d="M3744 1124 c3 -9 6 -20 6 -25 0 -5 4 -9 8 -9 5 0 9 7 9 15 0 8 -4 15
-9 15 -5 0 -6 5 -3 10 3 6 1 10 -5 10 -7 0 -9 -7 -6 -16z"/>
<path d="M526 1111 c-3 -5 1 -11 9 -15 8 -3 15 -1 15 4 0 13 -18 22 -24 11z"/>
<path d="M601 1111 c-14 -9 -4 -19 17 -15 6 1 18 2 25 3 8 1 7 4 -3 11 -18 12
-21 12 -39 1z"/>
<path d="M519 1088 c-7 -30 -7 -48 0 -48 12 0 21 39 10 46 -5 3 -9 4 -10 2z"/>
</g>
</svg>
