0 Kirow SNCF - Etude de construction
0 Name: kirow-etude.ldr
0 Author: Atelier Kirow
0 // Standard bricks only. Mechanisms are not physically validated.
1 72 -760 -10 0 0 0 1 0 1 0 -1 0 0 3460.dat
1 72 -720 -10 0 0 0 1 0 1 0 -1 0 0 3460.dat
1 72 -680 -10 0 0 0 1 0 1 0 -1 0 0 3460.dat
1 72 -640 -10 0 0 0 1 0 1 0 -1 0 0 3460.dat
1 72 -600 -10 0 0 0 1 0 1 0 -1 0 0 3460.dat
1 72 -560 -10 0 0 0 1 0 1 0 -1 0 0 3460.dat
1 72 -520 -10 0 0 0 1 0 1 0 -1 0 0 3460.dat
1 72 -480 -10 0 0 0 1 0 1 0 -1 0 0 3460.dat
1 72 -440 -10 0 0 0 1 0 1 0 -1 0 0 3460.dat
1 72 -400 -10 0 0 0 1 0 1 0 -1 0 0 3460.dat
1 72 -360 -10 0 0 0 1 0 1 0 -1 0 0 3460.dat
1 72 -320 -10 0 0 0 1 0 1 0 -1 0 0 3460.dat
1 72 -280 -10 0 0 0 1 0 1 0 -1 0 0 3460.dat
1 72 -240 -10 0 0 0 1 0 1 0 -1 0 0 3460.dat
1 72 -200 -10 0 0 0 1 0 1 0 -1 0 0 3460.dat
1 72 -160 -10 0 0 0 1 0 1 0 -1 0 0 3460.dat
1 72 -120 -10 0 0 0 1 0 1 0 -1 0 0 3460.dat
1 72 -80 -10 0 0 0 1 0 1 0 -1 0 0 3460.dat
1 72 -40 -10 0 0 0 1 0 1 0 -1 0 0 3460.dat
1 72 0 -10 0 0 0 1 0 1 0 -1 0 0 3460.dat
1 72 40 -10 0 0 0 1 0 1 0 -1 0 0 3460.dat
1 72 80 -10 0 0 0 1 0 1 0 -1 0 0 3460.dat
1 72 120 -10 0 0 0 1 0 1 0 -1 0 0 3460.dat
1 72 160 -10 0 0 0 1 0 1 0 -1 0 0 3460.dat
1 72 200 -10 0 0 0 1 0 1 0 -1 0 0 3460.dat
1 72 240 -10 0 0 0 1 0 1 0 -1 0 0 3460.dat
1 72 280 -10 0 0 0 1 0 1 0 -1 0 0 3460.dat
1 72 320 -10 0 0 0 1 0 1 0 -1 0 0 3460.dat
1 72 360 -10 0 0 0 1 0 1 0 -1 0 0 3460.dat
1 72 400 -10 0 0 0 1 0 1 0 -1 0 0 3460.dat
1 72 440 -10 0 0 0 1 0 1 0 -1 0 0 3460.dat
1 72 480 -10 0 0 0 1 0 1 0 -1 0 0 3460.dat
1 72 520 -10 0 0 0 1 0 1 0 -1 0 0 3460.dat
1 72 560 -10 0 0 0 1 0 1 0 -1 0 0 3460.dat
1 72 600 -10 0 0 0 1 0 1 0 -1 0 0 3460.dat
1 72 640 -10 0 0 0 1 0 1 0 -1 0 0 3460.dat
1 72 680 -10 0 0 0 1 0 1 0 -1 0 0 3460.dat
1 72 720 -10 0 0 0 1 0 1 0 -1 0 0 3460.dat
1 72 760 -10 0 0 0 1 0 1 0 -1 0 0 3460.dat
0 STEP
1 0 -340 -60 0 1 0 0 0 1 0 0 0 1 3031.dat
1 0 -260 -60 0 1 0 0 0 1 0 0 0 1 3031.dat
1 0 -180 -60 0 1 0 0 0 1 0 0 0 1 3031.dat
1 0 180 -60 0 1 0 0 0 1 0 0 0 1 3031.dat
1 0 260 -60 0 1 0 0 0 1 0 0 0 1 3031.dat
1 0 340 -60 0 1 0 0 0 1 0 0 0 1 3031.dat
0 STEP
1 72 -340 -84 -30 1 0 0 0 1 0 0 0 1 3010.dat
1 72 -260 -84 -30 1 0 0 0 1 0 0 0 1 3010.dat
1 72 -180 -84 -30 1 0 0 0 1 0 0 0 1 3010.dat
1 72 -340 -84 30 1 0 0 0 1 0 0 0 1 3010.dat
1 72 -260 -84 30 1 0 0 0 1 0 0 0 1 3010.dat
1 72 -180 -84 30 1 0 0 0 1 0 0 0 1 3010.dat
1 0 -350 -64 -50 1 0 0 0 1 0 0 0 1 3062b.dat
1 0 -350 -64 50 1 0 0 0 1 0 0 0 1 3062b.dat
1 0 -290 -64 -50 1 0 0 0 1 0 0 0 1 3062b.dat
1 0 -290 -64 50 1 0 0 0 1 0 0 0 1 3062b.dat
1 0 -230 -64 -50 1 0 0 0 1 0 0 0 1 3062b.dat
1 0 -230 -64 50 1 0 0 0 1 0 0 0 1 3062b.dat
1 0 -170 -64 -50 1 0 0 0 1 0 0 0 1 3062b.dat
1 0 -170 -64 50 1 0 0 0 1 0 0 0 1 3062b.dat
1 72 180 -84 -30 1 0 0 0 1 0 0 0 1 3010.dat
1 72 260 -84 -30 1 0 0 0 1 0 0 0 1 3010.dat
1 72 340 -84 -30 1 0 0 0 1 0 0 0 1 3010.dat
1 72 180 -84 30 1 0 0 0 1 0 0 0 1 3010.dat
1 72 260 -84 30 1 0 0 0 1 0 0 0 1 3010.dat
1 72 340 -84 30 1 0 0 0 1 0 0 0 1 3010.dat
1 0 170 -64 -50 1 0 0 0 1 0 0 0 1 3062b.dat
1 0 170 -64 50 1 0 0 0 1 0 0 0 1 3062b.dat
1 0 230 -64 -50 1 0 0 0 1 0 0 0 1 3062b.dat
1 0 230 -64 50 1 0 0 0 1 0 0 0 1 3062b.dat
1 0 290 -64 -50 1 0 0 0 1 0 0 0 1 3062b.dat
1 0 290 -64 50 1 0 0 0 1 0 0 0 1 3062b.dat
1 0 350 -64 -50 1 0 0 0 1 0 0 0 1 3062b.dat
1 0 350 -64 50 1 0 0 0 1 0 0 0 1 3062b.dat
0 STEP
1 0 -320 -92 -40 1 0 0 0 1 0 0 0 1 3035.dat
1 0 -320 -92 40 1 0 0 0 1 0 0 0 1 3035.dat
1 0 -160 -92 -40 1 0 0 0 1 0 0 0 1 3035.dat
1 0 -160 -92 40 1 0 0 0 1 0 0 0 1 3035.dat
1 0 0 -92 -40 1 0 0 0 1 0 0 0 1 3035.dat
1 0 0 -92 40 1 0 0 0 1 0 0 0 1 3035.dat
1 0 160 -92 -40 1 0 0 0 1 0 0 0 1 3035.dat
1 0 160 -92 40 1 0 0 0 1 0 0 0 1 3035.dat
1 0 320 -92 -40 1 0 0 0 1 0 0 0 1 3035.dat
1 0 320 -92 40 1 0 0 0 1 0 0 0 1 3035.dat
0 STEP
1 0 -360 -116 -60 1 0 0 0 1 0 0 0 1 3001.dat
1 0 -360 -116 60 1 0 0 0 1 0 0 0 1 3001.dat
1 0 -280 -116 -60 1 0 0 0 1 0 0 0 1 3001.dat
1 0 -280 -116 60 1 0 0 0 1 0 0 0 1 3001.dat
1 0 -200 -116 -60 1 0 0 0 1 0 0 0 1 3001.dat
1 0 -200 -116 60 1 0 0 0 1 0 0 0 1 3001.dat
1 0 -120 -116 -60 1 0 0 0 1 0 0 0 1 3001.dat
1 0 -120 -116 60 1 0 0 0 1 0 0 0 1 3001.dat
1 0 -40 -116 -60 1 0 0 0 1 0 0 0 1 3001.dat
1 0 -40 -116 60 1 0 0 0 1 0 0 0 1 3001.dat
1 0 40 -116 -60 1 0 0 0 1 0 0 0 1 3001.dat
1 0 40 -116 60 1 0 0 0 1 0 0 0 1 3001.dat
1 0 120 -116 -60 1 0 0 0 1 0 0 0 1 3001.dat
1 0 120 -116 60 1 0 0 0 1 0 0 0 1 3001.dat
1 0 200 -116 -60 1 0 0 0 1 0 0 0 1 3001.dat
1 0 200 -116 60 1 0 0 0 1 0 0 0 1 3001.dat
1 0 280 -116 -60 1 0 0 0 1 0 0 0 1 3001.dat
1 0 280 -116 60 1 0 0 0 1 0 0 0 1 3001.dat
1 0 360 -116 -60 1 0 0 0 1 0 0 0 1 3001.dat
1 0 360 -116 60 1 0 0 0 1 0 0 0 1 3001.dat
0 STEP
1 14 -360 -140 -70 1 0 0 0 1 0 0 0 1 3010.dat
1 14 -360 -140 70 1 0 0 0 1 0 0 0 1 3010.dat
1 14 -280 -140 -70 1 0 0 0 1 0 0 0 1 3010.dat
1 14 -280 -140 70 1 0 0 0 1 0 0 0 1 3010.dat
1 14 -200 -140 -70 1 0 0 0 1 0 0 0 1 3010.dat
1 14 -200 -140 70 1 0 0 0 1 0 0 0 1 3010.dat
1 14 -120 -140 -70 1 0 0 0 1 0 0 0 1 3010.dat
1 14 -120 -140 70 1 0 0 0 1 0 0 0 1 3010.dat
1 14 -40 -140 -70 1 0 0 0 1 0 0 0 1 3010.dat
1 14 -40 -140 70 1 0 0 0 1 0 0 0 1 3010.dat
1 14 40 -140 -70 1 0 0 0 1 0 0 0 1 3010.dat
1 14 40 -140 70 1 0 0 0 1 0 0 0 1 3010.dat
1 14 120 -140 -70 1 0 0 0 1 0 0 0 1 3010.dat
1 14 120 -140 70 1 0 0 0 1 0 0 0 1 3010.dat
1 14 200 -140 -70 1 0 0 0 1 0 0 0 1 3010.dat
1 14 200 -140 70 1 0 0 0 1 0 0 0 1 3010.dat
1 14 280 -140 -70 1 0 0 0 1 0 0 0 1 3010.dat
1 14 280 -140 70 1 0 0 0 1 0 0 0 1 3010.dat
1 14 360 -140 -70 1 0 0 0 1 0 0 0 1 3010.dat
1 14 360 -140 70 1 0 0 0 1 0 0 0 1 3010.dat
0 STEP
1 72 -320 -148 -40 1 0 0 0 1 0 0 0 1 3035.dat
1 72 -320 -148 40 1 0 0 0 1 0 0 0 1 3035.dat
1 72 -160 -148 -40 1 0 0 0 1 0 0 0 1 3035.dat
1 72 -160 -148 40 1 0 0 0 1 0 0 0 1 3035.dat
1 72 0 -148 -40 1 0 0 0 1 0 0 0 1 3035.dat
1 72 0 -148 40 1 0 0 0 1 0 0 0 1 3035.dat
1 72 160 -148 -40 1 0 0 0 1 0 0 0 1 3035.dat
1 72 160 -148 40 1 0 0 0 1 0 0 0 1 3035.dat
1 72 320 -148 -40 1 0 0 0 1 0 0 0 1 3035.dat
1 72 320 -148 40 1 0 0 0 1 0 0 0 1 3035.dat
0 STEP
1 0 -440 -92 0 0 0 1 0 1 0 -1 0 0 3035.dat
1 14 -440 -116 0 0 0 1 0 1 0 -1 0 0 3008.dat
1 4 -440 -124 -60 1 0 0 0 1 0 0 0 1 3024.dat
1 4 -440 -124 60 1 0 0 0 1 0 0 0 1 3024.dat
1 0 440 -92 0 0 0 1 0 1 0 -1 0 0 3035.dat
1 14 440 -116 0 0 0 1 0 1 0 -1 0 0 3008.dat
1 4 440 -124 -60 1 0 0 0 1 0 0 0 1 3024.dat
1 4 440 -124 60 1 0 0 0 1 0 0 0 1 3024.dat
0 STEP
1 72 -300 -120 -60 0 0 1 0 1 0 -1 0 0 3001.dat
1 14 -300 -120 -140 0 0 1 0 1 0 -1 0 0 3001.dat
1 0 -300 0 -160 1 0 0 0 1 0 0 0 1 3031.dat
1 72 -300 -24 -160 1 0 0 0 1 0 0 0 1 3003.dat
1 72 -300 -48 -160 1 0 0 0 1 0 0 0 1 3003.dat
1 72 -300 -72 -160 1 0 0 0 1 0 0 0 1 3003.dat
1 14 -300 -96 -160 1 0 0 0 1 0 0 0 1 3003.dat
1 14 -300 -128 -100 0 0 1 0 1 0 -1 0 0 3034.dat
1 72 -300 -120 60 0 0 1 0 1 0 -1 0 0 3001.dat
1 14 -300 -120 140 0 0 1 0 1 0 -1 0 0 3001.dat
1 0 -300 0 160 1 0 0 0 1 0 0 0 1 3031.dat
1 72 -300 -24 160 1 0 0 0 1 0 0 0 1 3003.dat
1 72 -300 -48 160 1 0 0 0 1 0 0 0 1 3003.dat
1 72 -300 -72 160 1 0 0 0 1 0 0 0 1 3003.dat
1 14 -300 -96 160 1 0 0 0 1 0 0 0 1 3003.dat
1 14 -300 -128 100 0 0 1 0 1 0 -1 0 0 3034.dat
1 72 300 -120 -60 0 0 1 0 1 0 -1 0 0 3001.dat
1 14 300 -120 -140 0 0 1 0 1 0 -1 0 0 3001.dat
1 0 300 0 -160 1 0 0 0 1 0 0 0 1 3031.dat
1 72 300 -24 -160 1 0 0 0 1 0 0 0 1 3003.dat
1 72 300 -48 -160 1 0 0 0 1 0 0 0 1 3003.dat
1 72 300 -72 -160 1 0 0 0 1 0 0 0 1 3003.dat
1 14 300 -96 -160 1 0 0 0 1 0 0 0 1 3003.dat
1 14 300 -128 -100 0 0 1 0 1 0 -1 0 0 3034.dat
1 72 300 -120 60 0 0 1 0 1 0 -1 0 0 3001.dat
1 14 300 -120 140 0 0 1 0 1 0 -1 0 0 3001.dat
1 0 300 0 160 1 0 0 0 1 0 0 0 1 3031.dat
1 72 300 -24 160 1 0 0 0 1 0 0 0 1 3003.dat
1 72 300 -48 160 1 0 0 0 1 0 0 0 1 3003.dat
1 72 300 -72 160 1 0 0 0 1 0 0 0 1 3003.dat
1 14 300 -96 160 1 0 0 0 1 0 0 0 1 3003.dat
1 14 300 -128 100 0 0 1 0 1 0 -1 0 0 3034.dat
0 STEP
1 0 -40 -156 0 1 0 0 0 1 0 0 0 1 3031.dat
1 0 40 -156 0 1 0 0 0 1 0 0 0 1 3031.dat
0 STEP
1 14 -320 -174 -60 1 0 0 0 1 0 0 0 1 3020.dat
1 14 -320 -174 -20 1 0 0 0 1 0 0 0 1 3020.dat
1 14 -320 -174 20 1 0 0 0 1 0 0 0 1 3020.dat
1 14 -320 -174 60 1 0 0 0 1 0 0 0 1 3020.dat
1 14 -240 -174 -60 1 0 0 0 1 0 0 0 1 3020.dat
1 14 -240 -174 -20 1 0 0 0 1 0 0 0 1 3020.dat
1 14 -240 -174 20 1 0 0 0 1 0 0 0 1 3020.dat
1 14 -240 -174 60 1 0 0 0 1 0 0 0 1 3020.dat
1 14 -160 -174 -60 1 0 0 0 1 0 0 0 1 3020.dat
1 14 -160 -174 -20 1 0 0 0 1 0 0 0 1 3020.dat
1 14 -160 -174 20 1 0 0 0 1 0 0 0 1 3020.dat
1 14 -160 -174 60 1 0 0 0 1 0 0 0 1 3020.dat
1 14 -80 -174 -60 1 0 0 0 1 0 0 0 1 3020.dat
1 14 -80 -174 -20 1 0 0 0 1 0 0 0 1 3020.dat
1 14 -80 -174 20 1 0 0 0 1 0 0 0 1 3020.dat
1 14 -80 -174 60 1 0 0 0 1 0 0 0 1 3020.dat
1 14 0 -174 -60 1 0 0 0 1 0 0 0 1 3020.dat
1 14 0 -174 -20 1 0 0 0 1 0 0 0 1 3020.dat
1 14 0 -174 20 1 0 0 0 1 0 0 0 1 3020.dat
1 14 0 -174 60 1 0 0 0 1 0 0 0 1 3020.dat
1 14 80 -174 -60 1 0 0 0 1 0 0 0 1 3020.dat
1 14 80 -174 -20 1 0 0 0 1 0 0 0 1 3020.dat
1 14 80 -174 20 1 0 0 0 1 0 0 0 1 3020.dat
1 14 80 -174 60 1 0 0 0 1 0 0 0 1 3020.dat
0 STEP
1 14 -320 -198 -60 1 0 0 0 1 0 0 0 1 3001.dat
1 14 -240 -198 -60 1 0 0 0 1 0 0 0 1 3001.dat
1 14 -160 -198 -60 1 0 0 0 1 0 0 0 1 3001.dat
1 14 -320 -198 60 1 0 0 0 1 0 0 0 1 3001.dat
1 14 -240 -198 60 1 0 0 0 1 0 0 0 1 3001.dat
1 14 -160 -198 60 1 0 0 0 1 0 0 0 1 3001.dat
1 14 -340 -222 -60 1 0 0 0 1 0 0 0 1 3003.dat
1 14 -140 -222 -60 1 0 0 0 1 0 0 0 1 3003.dat
1 14 -280 -222 -60 1 0 0 0 1 0 0 0 1 3001.dat
1 14 -200 -222 -60 1 0 0 0 1 0 0 0 1 3001.dat
1 14 -340 -222 60 1 0 0 0 1 0 0 0 1 3003.dat
1 14 -140 -222 60 1 0 0 0 1 0 0 0 1 3003.dat
1 14 -280 -222 60 1 0 0 0 1 0 0 0 1 3001.dat
1 14 -200 -222 60 1 0 0 0 1 0 0 0 1 3001.dat
1 14 -320 -246 -60 1 0 0 0 1 0 0 0 1 3001.dat
1 14 -240 -246 -60 1 0 0 0 1 0 0 0 1 3001.dat
1 14 -160 -246 -60 1 0 0 0 1 0 0 0 1 3001.dat
1 14 -320 -246 60 1 0 0 0 1 0 0 0 1 3001.dat
1 14 -240 -246 60 1 0 0 0 1 0 0 0 1 3001.dat
1 14 -160 -246 60 1 0 0 0 1 0 0 0 1 3001.dat
0 STEP
1 14 -340 -270 -60 1 0 0 0 1 0 0 0 1 3003.dat
1 14 -140 -270 -60 1 0 0 0 1 0 0 0 1 3003.dat
1 0 -280 -270 -60 1 0 0 0 1 0 0 0 1 3001.dat
1 0 -200 -270 -60 1 0 0 0 1 0 0 0 1 3001.dat
1 14 -340 -270 60 1 0 0 0 1 0 0 0 1 3003.dat
1 14 -140 -270 60 1 0 0 0 1 0 0 0 1 3003.dat
1 0 -280 -270 60 1 0 0 0 1 0 0 0 1 3001.dat
1 0 -200 -270 60 1 0 0 0 1 0 0 0 1 3001.dat
1 14 -320 -294 -60 1 0 0 0 1 0 0 0 1 3001.dat
1 0 -240 -294 -60 1 0 0 0 1 0 0 0 1 3001.dat
1 14 -160 -294 -60 1 0 0 0 1 0 0 0 1 3001.dat
1 14 -320 -294 60 1 0 0 0 1 0 0 0 1 3001.dat
1 0 -240 -294 60 1 0 0 0 1 0 0 0 1 3001.dat
1 14 -160 -294 60 1 0 0 0 1 0 0 0 1 3001.dat
0 STEP
0 STEP
1 14 -320 -302 -40 1 0 0 0 1 0 0 0 1 3031.dat
1 14 -320 -302 40 1 0 0 0 1 0 0 0 1 3031.dat
1 14 -240 -302 -40 1 0 0 0 1 0 0 0 1 3031.dat
1 14 -240 -302 40 1 0 0 0 1 0 0 0 1 3031.dat
1 14 -160 -302 -40 1 0 0 0 1 0 0 0 1 3031.dat
1 14 -160 -302 40 1 0 0 0 1 0 0 0 1 3031.dat
0 STEP
1 72 -480 -174 -40 1 0 0 0 1 0 0 0 1 3031.dat
1 72 -480 -174 40 1 0 0 0 1 0 0 0 1 3031.dat
1 72 -400 -174 -40 1 0 0 0 1 0 0 0 1 3031.dat
1 72 -400 -174 40 1 0 0 0 1 0 0 0 1 3031.dat
0 STEP
1 14 -480 -198 -60 1 0 0 0 1 0 0 0 1 3001.dat
1 14 -480 -198 -20 1 0 0 0 1 0 0 0 1 3001.dat
1 14 -480 -198 20 1 0 0 0 1 0 0 0 1 3001.dat
1 14 -480 -198 60 1 0 0 0 1 0 0 0 1 3001.dat
1 14 -400 -198 -60 1 0 0 0 1 0 0 0 1 3001.dat
1 14 -400 -198 -20 1 0 0 0 1 0 0 0 1 3001.dat
1 14 -400 -198 20 1 0 0 0 1 0 0 0 1 3001.dat
1 14 -400 -198 60 1 0 0 0 1 0 0 0 1 3001.dat
1 0 -480 -222 -60 1 0 0 0 1 0 0 0 1 3001.dat
1 0 -480 -222 -20 1 0 0 0 1 0 0 0 1 3001.dat
1 0 -480 -222 20 1 0 0 0 1 0 0 0 1 3001.dat
1 0 -480 -222 60 1 0 0 0 1 0 0 0 1 3001.dat
1 0 -400 -222 -60 1 0 0 0 1 0 0 0 1 3001.dat
1 0 -400 -222 -20 1 0 0 0 1 0 0 0 1 3001.dat
1 0 -400 -222 20 1 0 0 0 1 0 0 0 1 3001.dat
1 0 -400 -222 60 1 0 0 0 1 0 0 0 1 3001.dat
1 14 -480 -246 -60 1 0 0 0 1 0 0 0 1 3001.dat
1 14 -480 -246 -20 1 0 0 0 1 0 0 0 1 3001.dat
1 14 -480 -246 20 1 0 0 0 1 0 0 0 1 3001.dat
1 14 -480 -246 60 1 0 0 0 1 0 0 0 1 3001.dat
1 14 -400 -246 -60 1 0 0 0 1 0 0 0 1 3001.dat
1 14 -400 -246 -20 1 0 0 0 1 0 0 0 1 3001.dat
1 14 -400 -246 20 1 0 0 0 1 0 0 0 1 3001.dat
1 14 -400 -246 60 1 0 0 0 1 0 0 0 1 3001.dat
1 14 -480 -270 -60 1 0 0 0 1 0 0 0 1 3001.dat
1 14 -480 -270 -20 1 0 0 0 1 0 0 0 1 3001.dat
1 14 -480 -270 20 1 0 0 0 1 0 0 0 1 3001.dat
1 14 -480 -270 60 1 0 0 0 1 0 0 0 1 3001.dat
1 14 -400 -270 -60 1 0 0 0 1 0 0 0 1 3001.dat
1 14 -400 -270 -20 1 0 0 0 1 0 0 0 1 3001.dat
1 14 -400 -270 20 1 0 0 0 1 0 0 0 1 3001.dat
1 14 -400 -270 60 1 0 0 0 1 0 0 0 1 3001.dat
1 14 -480 -294 -60 1 0 0 0 1 0 0 0 1 3001.dat
1 14 -480 -294 -20 1 0 0 0 1 0 0 0 1 3001.dat
1 14 -480 -294 20 1 0 0 0 1 0 0 0 1 3001.dat
1 14 -480 -294 60 1 0 0 0 1 0 0 0 1 3001.dat
1 14 -400 -294 -60 1 0 0 0 1 0 0 0 1 3001.dat
1 14 -400 -294 -20 1 0 0 0 1 0 0 0 1 3001.dat
1 14 -400 -294 20 1 0 0 0 1 0 0 0 1 3001.dat
1 14 -400 -294 60 1 0 0 0 1 0 0 0 1 3001.dat
1 14 -480 -302 -40 1 0 0 0 1 0 0 0 1 3031.dat
1 14 -480 -302 40 1 0 0 0 1 0 0 0 1 3031.dat
1 14 -400 -302 -40 1 0 0 0 1 0 0 0 1 3031.dat
1 14 -400 -302 40 1 0 0 0 1 0 0 0 1 3031.dat
0 STEP
1 14 -60 -174 120 1 0 0 0 1 0 0 0 1 3031.dat
1 14 20 -174 120 1 0 0 0 1 0 0 0 1 3031.dat
1 14 -60 -198 140 1 0 0 0 1 0 0 0 1 3001.dat
1 14 20 -198 140 1 0 0 0 1 0 0 0 1 3001.dat
0 STEP
1 14 -90 -230 90 1 0 0 0 1 0 0 0 1 3005.dat
1 14 -90 -254 90 1 0 0 0 1 0 0 0 1 3005.dat
1 14 -90 -278 90 1 0 0 0 1 0 0 0 1 3005.dat
1 14 -90 -302 90 1 0 0 0 1 0 0 0 1 3005.dat
1 14 -90 -230 150 1 0 0 0 1 0 0 0 1 3005.dat
1 14 -90 -254 150 1 0 0 0 1 0 0 0 1 3005.dat
1 14 -90 -278 150 1 0 0 0 1 0 0 0 1 3005.dat
1 14 -90 -302 150 1 0 0 0 1 0 0 0 1 3005.dat
1 14 50 -230 90 1 0 0 0 1 0 0 0 1 3005.dat
1 14 50 -254 90 1 0 0 0 1 0 0 0 1 3005.dat
1 14 50 -278 90 1 0 0 0 1 0 0 0 1 3005.dat
1 14 50 -302 90 1 0 0 0 1 0 0 0 1 3005.dat
1 14 50 -230 150 1 0 0 0 1 0 0 0 1 3005.dat
1 14 50 -254 150 1 0 0 0 1 0 0 0 1 3005.dat
1 14 50 -278 150 1 0 0 0 1 0 0 0 1 3005.dat
1 14 50 -302 150 1 0 0 0 1 0 0 0 1 3005.dat
0 STEP
1 0 -60 -206 90 1 0 0 0 1 0 0 0 1 3710.dat
1 0 -60 -206 150 1 0 0 0 1 0 0 0 1 3710.dat
1 0 20 -206 90 1 0 0 0 1 0 0 0 1 3710.dat
1 0 20 -206 150 1 0 0 0 1 0 0 0 1 3710.dat
0 STEP
1 14 -60 -310 120 1 0 0 0 1 0 0 0 1 3031.dat
1 14 20 -310 120 1 0 0 0 1 0 0 0 1 3031.dat
1 14 -60 -318 120 1 0 0 0 1 0 0 0 1 3031.dat
1 14 20 -318 120 1 0 0 0 1 0 0 0 1 3031.dat
0 STEP
1 14 -80 -198 -50 1 0 0 0 1 0 0 0 1 3010.dat
1 14 -80 -198 50 1 0 0 0 1 0 0 0 1 3010.dat
1 14 -80 -222 -50 1 0 0 0 1 0 0 0 1 3010.dat
1 14 -80 -222 50 1 0 0 0 1 0 0 0 1 3010.dat
1 14 -80 -246 -50 1 0 0 0 1 0 0 0 1 3010.dat
1 14 -80 -246 50 1 0 0 0 1 0 0 0 1 3010.dat
1 14 -80 -270 -50 1 0 0 0 1 0 0 0 1 3010.dat
1 14 -80 -270 50 1 0 0 0 1 0 0 0 1 3010.dat
1 14 -80 -294 -50 1 0 0 0 1 0 0 0 1 3010.dat
1 14 -80 -294 50 1 0 0 0 1 0 0 0 1 3010.dat
0 STEP
1 14 -40 -284 0 1 0 0 0 1 0 0 0 1 3031.dat
1 14 40 -284 0 1 0 0 0 1 0 0 0 1 3031.dat
1 14 120 -284 0 1 0 0 0 1 0 0 0 1 3031.dat
1 14 200 -284 0 1 0 0 0 1 0 0 0 1 3031.dat
1 14 280 -284 0 1 0 0 0 1 0 0 0 1 3031.dat
1 14 360 -284 0 1 0 0 0 1 0 0 0 1 3031.dat
1 14 440 -284 0 1 0 0 0 1 0 0 0 1 3031.dat
0 STEP
1 14 -40 -308 -30 1 0 0 0 1 0 0 0 1 3010.dat
1 14 40 -308 -30 1 0 0 0 1 0 0 0 1 3010.dat
1 14 120 -308 -30 1 0 0 0 1 0 0 0 1 3010.dat
1 14 200 -308 -30 1 0 0 0 1 0 0 0 1 3010.dat
1 14 280 -308 -30 1 0 0 0 1 0 0 0 1 3010.dat
1 14 360 -308 -30 1 0 0 0 1 0 0 0 1 3010.dat
1 14 440 -308 -30 1 0 0 0 1 0 0 0 1 3010.dat
1 14 -40 -308 30 1 0 0 0 1 0 0 0 1 3010.dat
1 14 40 -308 30 1 0 0 0 1 0 0 0 1 3010.dat
1 14 120 -308 30 1 0 0 0 1 0 0 0 1 3010.dat
1 14 200 -308 30 1 0 0 0 1 0 0 0 1 3010.dat
1 14 280 -308 30 1 0 0 0 1 0 0 0 1 3010.dat
1 14 360 -308 30 1 0 0 0 1 0 0 0 1 3010.dat
1 14 440 -308 30 1 0 0 0 1 0 0 0 1 3010.dat
0 STEP
1 14 -60 -332 -30 1 0 0 0 1 0 0 0 1 3004.dat
1 14 460 -332 -30 1 0 0 0 1 0 0 0 1 3004.dat
1 14 0 -332 -30 1 0 0 0 1 0 0 0 1 3010.dat
1 14 80 -332 -30 1 0 0 0 1 0 0 0 1 3010.dat
1 14 160 -332 -30 1 0 0 0 1 0 0 0 1 3010.dat
1 14 240 -332 -30 1 0 0 0 1 0 0 0 1 3010.dat
1 14 320 -332 -30 1 0 0 0 1 0 0 0 1 3010.dat
1 14 400 -332 -30 1 0 0 0 1 0 0 0 1 3010.dat
1 14 -60 -332 30 1 0 0 0 1 0 0 0 1 3004.dat
1 14 460 -332 30 1 0 0 0 1 0 0 0 1 3004.dat
1 14 0 -332 30 1 0 0 0 1 0 0 0 1 3010.dat
1 14 80 -332 30 1 0 0 0 1 0 0 0 1 3010.dat
1 14 160 -332 30 1 0 0 0 1 0 0 0 1 3010.dat
1 14 240 -332 30 1 0 0 0 1 0 0 0 1 3010.dat
1 14 320 -332 30 1 0 0 0 1 0 0 0 1 3010.dat
1 14 400 -332 30 1 0 0 0 1 0 0 0 1 3010.dat
0 STEP
1 14 -40 -340 0 1 0 0 0 1 0 0 0 1 3031.dat
1 14 40 -340 0 1 0 0 0 1 0 0 0 1 3031.dat
1 14 120 -340 0 1 0 0 0 1 0 0 0 1 3031.dat
1 14 200 -340 0 1 0 0 0 1 0 0 0 1 3031.dat
1 14 280 -340 0 1 0 0 0 1 0 0 0 1 3031.dat
1 14 360 -340 0 1 0 0 0 1 0 0 0 1 3031.dat
1 14 440 -340 0 1 0 0 0 1 0 0 0 1 3031.dat
0 STEP
1 14 500 -292 0 1 0 0 0 1 0 0 0 1 3020.dat
1 14 580 -292 0 1 0 0 0 1 0 0 0 1 3020.dat
1 14 660 -292 0 1 0 0 0 1 0 0 0 1 3020.dat
1 14 740 -292 0 1 0 0 0 1 0 0 0 1 3020.dat
0 STEP
1 14 500 -316 0 1 0 0 0 1 0 0 0 1 3001.dat
1 14 580 -316 0 1 0 0 0 1 0 0 0 1 3001.dat
1 14 660 -316 0 1 0 0 0 1 0 0 0 1 3001.dat
1 14 740 -316 0 1 0 0 0 1 0 0 0 1 3001.dat
0 STEP
1 14 500 -324 0 1 0 0 0 1 0 0 0 1 3020.dat
1 14 580 -324 0 1 0 0 0 1 0 0 0 1 3020.dat
1 14 660 -324 0 1 0 0 0 1 0 0 0 1 3020.dat
1 0 740 -324 0 1 0 0 0 1 0 0 0 1 3020.dat
0 STEP
1 14 760 -64 0 1 0 0 0 1 0 0 0 1 3001.dat
1 0 760 -88 0 1 0 0 0 1 0 0 0 1 3001.dat
1 14 760 -112 0 1 0 0 0 1 0 0 0 1 3001.dat
0 STEP
1 14 -400 -172 -60 1 0 0 0 1 0 0 0 1 3062b.dat
1 14 -400 -172 60 1 0 0 0 1 0 0 0 1 3062b.dat
1 14 400 -172 -60 1 0 0 0 1 0 0 0 1 3062b.dat
1 14 400 -172 60 1 0 0 0 1 0 0 0 1 3062b.dat
1 14 -340 -190 -90 1 0 0 0 1 0 0 0 1 3062b.dat
1 14 -340 -190 90 1 0 0 0 1 0 0 0 1 3062b.dat
1 14 -300 -190 -90 1 0 0 0 1 0 0 0 1 3062b.dat
1 14 -300 -190 90 1 0 0 0 1 0 0 0 1 3062b.dat
1 14 -260 -190 -90 1 0 0 0 1 0 0 0 1 3062b.dat
1 14 -260 -190 90 1 0 0 0 1 0 0 0 1 3062b.dat
1 14 -220 -190 -90 1 0 0 0 1 0 0 0 1 3062b.dat
1 14 -220 -190 90 1 0 0 0 1 0 0 0 1 3062b.dat
1 14 -180 -190 -90 1 0 0 0 1 0 0 0 1 3062b.dat
1 14 -180 -190 90 1 0 0 0 1 0 0 0 1 3062b.dat
1 14 -140 -190 -90 1 0 0 0 1 0 0 0 1 3062b.dat
1 14 -140 -190 90 1 0 0 0 1 0 0 0 1 3062b.dat
0 STEP
0 STEP